# xmcd CD database file
#
# Track frame offsets:
#	150
#	12272
#	26107
#	40979
#	58898
#	66691
#	71746
#	76886
#	87221
#	92415
#	98137
#	107630
#	114896
#	125734
#	131867
#	138254
#
# Disc length: 1934 seconds
#
# Revision: 0
# Processed by: cddbd v1.5.1PL2 Copyright (c) Steve Scherf et al.
# Submitted via: CDex 1.51
#
DISCID=e1078c10
DTITLE=John Clarke - The Way I Like My Jazz
DYEAR=1900
DGENRE=Jazz
TTITLE0=Uncommon Artistry
TTITLE1=A Jazz Supreme
TTITLE2=Bob Kaufman Medley
TTITLE3=A Miles Davis Trumpet
TTITLE4=The Lonely Saxophone
TTITLE5=The Glove Compartment
TTITLE6=City Suburban Sounds
TTITLE7=Chamaleon
TTITLE8=A Taste Of Home
TTITLE9=The Fruits Of Love
TTITLE10=Harwood Alley Song (San Francisco)
TTITLE11=Multiple Choice Poem
TTITLE12=The Way I Like My Jazz
TTITLE13=Beat Blues
TTITLE14=Hip Heaven
TTITLE15=Said It Before I Read It
EXTD=
EXTT0=
EXTT1=
EXTT2=
EXTT3=
EXTT4=
EXTT5=
EXTT6=
EXTT7=
EXTT8=
EXTT9=
EXTT10=
EXTT11=
EXTT12=
EXTT13=
EXTT14=
EXTT15=
PLAYORDER=
